<?xml version="1.0" encoding="UTF-8"?>
<svg id="Layer_2" data-name="Layer 2" xmlns="http://www.w3.org/2000/svg" viewBox="0 0 482.26 215.65">
  <defs>
    <style>
      .cls-1 {
        fill: #231f20;
        stroke-width: 0px;
      }
    </style>
  </defs>
  <g id="Layer_1-2" data-name="Layer 1">
    <g>
      <path class="cls-1" d="m295.19,164.97h.55c.42,0,.83.05,1.24.15.41.1.72.33.95.69.03.11.05.24.08.4.03.15.01.33-.04.53l-.4.4c-.15.15-.3.27-.44.36-.53.11-1.05.14-1.55.08h-.84c-3.02-.2-6.03-.42-9.03-.67-5.52-.42-11.03-.81-16.54-1.18-22.82-1.48-45.58-2.29-68.3-2.42-22.72-.13-45.92.19-69.6.95-2.46.06-4.98.21-7.56.46-2.38.17-4.76.28-7.14.34-2.3.08-4.42,1.08-6.38,2.98-8.62,7.7-17.57,14.99-26.83,21.88-6.52,4.87-13.07,9.24-19.65,13.12-6.58,3.88-13.14,6.96-19.67,9.24-6.54,2.28-12.89,3.41-19.06,3.38s-12.06-1.55-17.66-4.58c-2.66-1.34-4.73-3.29-6.21-5.84-2.27-4.42-.97-9.2,3.91-14.32,3.36-3.3,7.12-6.03,11.3-8.19,6.35-3.39,13.37-6.26,21.06-8.61s15.6-4.26,23.75-5.73,16.04-2.64,23.68-3.51c7.64-.87,14.57-1.51,20.79-1.93,2.52-.2,4.81-1.27,6.89-3.23,7.61-7.22,16.01-15.68,25.17-25.38,9.17-9.7,18.3-19.9,27.4-30.61s17.37-21.13,24.82-31.26c7.45-10.13,13.28-19.26,17.51-27.38,1.26-2.46,2.07-4.93,2.44-7.39.45-3.95-1.19-6.2-4.91-6.76-.53-.06-1.05-.08-1.55-.08-1.18,0-2.39.15-3.65.46-5.46,1.04-12.56,3.34-21.31,6.91-8.75,3.57-18.18,8.01-28.3,13.31-10.12,5.31-20.07,11.11-29.86,17.43-9.78,6.31-18.45,12.73-25.99,19.25-7.54,6.52-13.14,12.84-16.78,18.94-3.02,5.24-2.56,9.06,1.39,11.46,3.25,1.71,7.1,2.46,11.55,2.25s8.83-.72,13.14-1.53c2.66-.53,5.22-.8,7.68-.8,1.04,0,2.02.06,2.94.17.25,0,.46.08.63.23.17.15.15.41-.04.78-.36.62-.83.95-1.39,1.01-3.5.31-7.08.74-10.75,1.3-4.45.76-8.83,1.25-13.14,1.49-4.31.24-8.31-.19-12.01-1.28-1.9-.56-3.54-1.43-4.91-2.6-3.25-2.88-3.54-6.89-.88-12.01,3.61-6.52,9.41-13.3,17.38-20.32,7.98-7.03,17.13-13.86,27.46-20.51,10.33-6.65,20.89-12.74,31.68-18.29,10.79-5.54,20.81-10.11,30.07-13.71,9.25-3.6,16.79-5.83,22.61-6.7,1.43-.25,2.8-.35,4.12-.29,2.38-.06,4.55.25,6.51.92,3.58,1.29,5.15,4.03,4.7,8.23-.73,4.51-3.52,10.65-8.38,18.43-4.86,7.78-11,16.45-18.41,25.99-7.42,9.55-15.3,19.14-23.64,28.79-8.34,9.64-16.28,18.51-23.81,26.6-7.53,8.09-13.87,14.6-19.02,19.53-1.4,1.32-2.77,2.65-4.12,3.99-.31.36-.43.7-.36,1.01.07.31.31.46.73.46h.08c1.12,0,2.25-.03,3.4-.08,3.28-.11,6.59-.27,9.95-.46,7-.31,13.98-.56,20.96-.76,48.38-1.4,95.59.11,141.64,4.54Zm-197.78,8.06c.45-.39.94-.8,1.47-1.22.87-.73,1.78-1.53,2.75-2.39.97-.87,1.91-1.89,2.83-3.07h-2.94c-2.07.25-4.16.5-6.26.76-2.72.31-5.42.62-8.1.92-6.21.56-13.52,1.56-21.92,3-8.4,1.44-16.84,3.41-25.32,5.9s-15.85,5.61-22.09,9.37c-2.13,1.31-4.17,2.8-6.13,4.45-5.93,5.12-7.25,9.84-3.95,14.15,3.95,4.54,8.82,7.02,14.61,7.46,5.79.43,12.09-.61,18.88-3.13,6.79-2.52,13.63-5.89,20.53-10.12,6.9-4.23,13.43-8.66,19.59-13.31,6.16-4.65,11.51-8.9,16.04-12.77Z"/>
      <path class="cls-1" d="m159.9,150.65h-.13c-4.03-.06-6.38-.96-7.03-2.71-.66-1.75.24-4.08,2.71-6.99,1.99-2.21,4.18-4.14,6.59-5.79.81-.56,1.6-1.01,2.37-1.34.77-.34,1.56-.5,2.37-.5.5-.08,1.01,0,1.51.25.2.06.38.13.55.21.5-.08,1.02-.24,1.55-.46.14-.08.31-.15.5-.21,1.06-.36,2.1-.52,3.11-.46h1.3c1.57.25,2.57.94,3,2.08.43,1.13.23,2.51-.61,4.14-.5.98-1.15,1.9-1.93,2.77-5.32,5.77-10.53,8.78-15.62,9.03h-.25Zm12.14-15.03c-2.18-.08-4.39.55-6.61,1.91-2.23,1.36-4.08,2.92-5.56,4.68-1.48,1.76-2.24,3.21-2.27,4.35-.03,1.13,1.04,1.45,3.19.95,2.44-.67,4.84-1.93,7.2-3.78,2.37-1.85,4.05-3.6,5.04-5.27.99-1.67.67-2.61-.99-2.83Z"/>
      <path class="cls-1" d="m183.54,150.65c2.29,0,2.71,1.11,1.26,3.32-.64.87-1.3,1.68-1.97,2.44-.59.67-1.26,1.11-2.02,1.32s-1.46.16-2.1-.15c-.53-.25-.71-.69-.55-1.3.31-.98.71-1.99,1.22-3.02.87-1.85,2.25-2.71,4.16-2.6Z"/>
      <path class="cls-1" d="m480.76,39.41c.5.62.91,1.31,1.22,2.08.31.77.36,1.69.17,2.75-.25,1.18-1.01,2.07-2.27,2.69-.73.31-1.34.35-1.85.13-.5-.22-.76-.67-.76-1.34,0-1.85-.48-3.31-1.45-4.39-.97-1.08-2.11-2.02-3.42-2.83-2.86-1.85-5.94-3.35-9.26-4.51-3.32-1.16-6.73-2.18-10.23-3.04-5.88-1.34-14.03-2.22-24.44-2.62-10.41-.41-22.24-.25-35.46.46-13.23.71-27,2.1-41.32,4.16-14.32,2.06-28.35,4.89-42.08,8.48-13.73,3.6-26.27,8.08-37.6,13.44-11.34,5.36-20.65,11.68-27.92,18.96-6.16,6.33-9.35,13-9.57,20.03-.08,4.82.73,9.2,2.44,13.14,2.52,5.91,5.72,11.32,9.62,16.25,3.19,4.37,6.42,8.73,9.7,13.1,3.22,4.2,6.42,8.46,9.62,12.77,3.5,4.87,6.91,9.8,10.25,14.78.28.48.6.94.97,1.39,1.82,2.58,3.21,5.43,4.16,8.57.87,3.58.27,6.36-1.78,8.34-2.06,1.97-5.08,3.31-9.05,4.01-3.98.7-8.38.92-13.21.65-4.83-.27-9.57-.88-14.21-1.85-4.65-.97-8.67-2.12-12.05-3.46-3.39-1.34-5.61-2.73-6.68-4.16-2.13-2.97-1.2-6.1,2.77-9.41,4.23-3.39,8.78-5.85,13.65-7.39,7.14-2.41,13.52-2.6,19.15-.59,1.09.45,2.06,1.04,2.9,1.76.08.06.15.13.21.21.25.17.37.42.36.76-.01.34-.2.7-.57,1.09-.73.62-1.4.8-2.02.55-.62-.25-1.16-.56-1.64-.92-3.64-2.21-8.03-2.67-13.17-1.39-5.14,1.29-10.01,3.83-14.63,7.64-2.07,1.85-2.73,3.46-1.97,4.85.76,1.39,2.25,2.56,4.49,3.53,2.24.97,4.57,1.72,6.99,2.27,2.42.55,4.23.92,5.44,1.11.25,0,.43.03.55.08.25,0,.55.03.88.08,1.51.36,3.63.75,6.36,1.15,2.73.41,5.59.69,8.59.84,3,.15,5.68-.05,8.06-.61,2.38-.56,4-1.64,4.87-3.23.87-1.6.52-3.96-1.05-7.1-1.68-3.33-3.56-6.56-5.63-9.7-5.21-7.75-10.69-15.27-16.46-22.55-2.04-2.71-4.07-5.43-6.09-8.15-3.39-4.54-6.65-9.18-9.78-13.94-2.94-4.37-5.18-9.17-6.72-14.4-1.06-3.81-1.29-7.91-.67-12.3,1.15-7.19,4.9-13.84,11.25-19.95,7.03-6.83,15.81-12.88,26.35-18.14,10.54-5.26,22.17-9.76,34.88-13.48,12.71-3.72,25.91-6.74,39.6-9.05s27.27-3.95,40.75-4.91c13.48-.97,26.18-1.29,38.11-.99,11.93.31,22.49,1.22,31.68,2.73,9.2,1.51,16.44,3.6,21.73,6.26,2.83,1.29,5.25,3.07,7.26,5.33Z"/>
      <path class="cls-1" d="m319.89,139.21c.53.38.25,1.3-.84,2.75-1.2,1.06-2.44,2.06-3.7,2.98s-2.58,1.75-3.95,2.48c-.08,0-.13.03-.13.08-.92.5-1.86.94-2.81,1.3-7.56,2.41-10.46.99-8.69-4.24-3.58,2.35-5.92,3.79-7.01,4.33-2.72,1.32-5.33,1.9-7.85,1.76-1.85-.11-2.93-.69-3.23-1.74s.27-2.47,1.72-4.26c2.27-2.83,4.94-5.35,8.02-7.56,3.55-2.46,7.22-4.44,11-5.92,2.04-.87,3.99-1.2,5.84-1.01,1.85.11,2.6,1.19,2.27,3.23-.06.62-.41,1.16-1.05,1.64-.84.56-1.61.69-2.31.38-.06,0-.13-.01-.21-.04-.08-.03-.14-.07-.17-.13-.42-1.12-1.07-1.59-1.95-1.41-.88.18-1.9.55-3.04,1.11-5.21,2.52-9.69,6.03-13.44,10.54-.2.2-.35.41-.46.65-.11.24-.11.43,0,.57.45.17,1.02.13,1.72-.11.7-.24,1.44-.59,2.23-1.05.78-.46,1.44-.85,1.97-1.15l.17-.13c2.66-1.71,5.29-3.46,7.89-5.25,1.2-.92,2.48-1.44,3.82-1.55,1.85,0,2.31.83,1.39,2.48-.39.62-.8,1.23-1.22,1.85-1.71,2.66-2.31,4.22-1.81,4.68s1.53.46,3.09,0c1.55-.46,3.26-1.34,5.12-2.65,1.86-1.3,3.46-2.49,4.81-3.57,1.34-1.08,2.28-1.43,2.81-1.05Z"/>
      <path class="cls-1" d="m355.24,93.92c.22-.22.59-.41,1.11-.57.52-.15,1.04-.27,1.55-.34.52-.07.94-.06,1.26.04.32.1.41.27.27.53-.78,1.29-1.71,2.55-2.77,3.78-.11.17-.28.38-.5.63-4.28,5.38-8.59,10.71-12.93,16-.64.78-1.26,1.55-1.85,2.31-1.51,1.79-3.39,3.98-5.63,6.55-2.41,2.72-4.55,5.21-6.42,7.47,1.43-1.18,2.98-2.04,4.66-2.58s2.91-.82,3.7-.82c2.94.06,4.04,1.53,3.32,4.41-.73,3.28-2.53,6.61-5.42,9.99-2.88,3.39-6.08,6.16-9.57,8.31-2.77,1.29-5.16,1.85-7.16,1.7-2-.15-3.46-1.15-4.39-3-.2,0-.43.09-.69.27-.27.18-.58.4-.95.65-.42.36-.85.64-1.3.84-.28.11-.55.14-.82.08-.27-.06-.47-.14-.61-.25-.42-.5-.39-1.12.08-1.85,4.62-6.16,9.73-12.57,15.33-19.23,5.6-6.66,11.14-13.16,16.63-19.48,2.38-2.83,4.7-5.57,6.97-8.23.92-1.04,1.83-2.11,2.73-3.23,1.09-1.29,2.23-2.62,3.4-3.99Zm-24.4,38.09c-2.72,1.54-5.26,3.42-7.64,5.63-2.38,2.21-3.79,4.55-4.24,7.01-.28,1.43-.07,2.44.63,3.02.7.59,1.86.38,3.49-.63,1.62-1.15,3.37-2.59,5.25-4.33,1.88-1.74,3.54-3.58,5-5.54,1.26-1.74,2.18-3.25,2.77-4.54.59-1.29.53-2.07-.19-2.35-.71-.28-2.4.29-5.06,1.72Z"/>
      <path class="cls-1" d="m370.99,139.21c.53.38.25,1.3-.84,2.75-1.2,1.06-2.44,2.06-3.7,2.98s-2.58,1.75-3.95,2.48c-.08,0-.13.03-.13.08-.92.5-1.86.94-2.81,1.3-7.56,2.41-10.46.99-8.69-4.24-3.58,2.35-5.92,3.79-7.01,4.33-2.72,1.32-5.33,1.9-7.85,1.76-1.85-.11-2.93-.69-3.23-1.74s.27-2.47,1.72-4.26c2.27-2.83,4.94-5.35,8.02-7.56,3.55-2.46,7.22-4.44,11-5.92,2.04-.87,3.99-1.2,5.84-1.01,1.85.11,2.6,1.19,2.27,3.23-.06.62-.41,1.16-1.05,1.64-.84.56-1.61.69-2.31.38-.06,0-.13-.01-.21-.04-.08-.03-.14-.07-.17-.13-.42-1.12-1.07-1.59-1.95-1.41-.88.18-1.9.55-3.04,1.11-5.21,2.52-9.69,6.03-13.44,10.54-.2.2-.35.41-.46.65-.11.24-.11.43,0,.57.45.17,1.02.13,1.72-.11.7-.24,1.44-.59,2.23-1.05.78-.46,1.44-.85,1.97-1.15l.17-.13c2.66-1.71,5.29-3.46,7.89-5.25,1.2-.92,2.48-1.44,3.82-1.55,1.85,0,2.31.83,1.39,2.48-.39.62-.8,1.23-1.22,1.85-1.71,2.66-2.31,4.22-1.81,4.68s1.53.46,3.09,0c1.55-.46,3.26-1.34,5.12-2.65,1.86-1.3,3.46-2.49,4.81-3.57,1.34-1.08,2.28-1.43,2.81-1.05Z"/>
      <path class="cls-1" d="m398.66,142.71c-2.1,1.48-4.21,2.73-6.34,3.74-2.13,1.01-4.55,2.02-7.26,3.02-1.76.67-3.47.9-5.12.67-1.65-.22-2.14-1.27-1.47-3.15.67-1.88,1.78-3.74,3.32-5.58,1.57-1.9,2.12-2.88,1.66-2.94-.46-.06-1.65.41-3.55,1.39-4.96,2.63-9.77,5.64-14.45,9.03-1.34,1.12-2.74,1.74-4.2,1.85-.73,0-1.21-.23-1.45-.69-.24-.46-.12-.96.36-1.49,4.14-4.56,8.29-9.07,12.43-13.52.9-.92,1.95-1.5,3.15-1.72.5-.08.89.06,1.16.44.27.38.31.81.15,1.28-.22.45-.6.98-1.13,1.6-.28.36-.55.71-.8,1.05s-.39.62-.42.84c-.03.22.13.29.46.21.5-.22,1.01-.46,1.51-.71,1.29-.62,2.52-1.2,3.7-1.76,1.06-.5,2.14-.95,3.23-1.34,1.09-.39,2.18-.66,3.28-.8,1.71-.11,2.76.27,3.15,1.13.39.87.04,2.07-1.05,3.61-1.09,1.4-2.18,2.79-3.28,4.16-1.23,1.29-1.72,2.27-1.47,2.94s2.87-.1,7.85-2.31l3.82-1.85c3.67-1.9,5.53-2.62,5.58-2.14.22.56-.71,1.58-2.81,3.07Z"/>
      <path class="cls-1" d="m429.61,139.21c.53.38.25,1.3-.84,2.75-1.2,1.06-2.44,2.06-3.7,2.98s-2.58,1.75-3.95,2.48c-.08,0-.13.03-.13.08-.92.5-1.86.94-2.81,1.3-7.56,2.41-10.46.99-8.69-4.24-3.58,2.35-5.92,3.79-7.01,4.33-2.72,1.32-5.33,1.9-7.85,1.76-1.85-.11-2.93-.69-3.23-1.74s.27-2.47,1.72-4.26c2.27-2.83,4.94-5.35,8.02-7.56,3.55-2.46,7.22-4.44,11-5.92,2.04-.87,3.99-1.2,5.84-1.01,1.85.11,2.6,1.19,2.27,3.23-.06.62-.41,1.16-1.05,1.64-.84.56-1.61.69-2.31.38-.06,0-.13-.01-.21-.04-.08-.03-.14-.07-.17-.13-.42-1.12-1.07-1.59-1.95-1.41-.88.18-1.9.55-3.04,1.11-5.21,2.52-9.69,6.03-13.44,10.54-.2.2-.35.41-.46.65-.11.24-.11.43,0,.57.45.17,1.02.13,1.72-.11.7-.24,1.44-.59,2.23-1.05.78-.46,1.44-.85,1.97-1.15l.17-.13c2.66-1.71,5.29-3.46,7.89-5.25,1.2-.92,2.48-1.44,3.82-1.55,1.85,0,2.31.83,1.39,2.48-.39.62-.8,1.23-1.22,1.85-1.71,2.66-2.31,4.22-1.81,4.68s1.53.46,3.09,0c1.55-.46,3.26-1.34,5.12-2.65,1.86-1.3,3.46-2.49,4.81-3.57,1.34-1.08,2.28-1.43,2.81-1.05Z"/>
    </g>
    <path class="cls-1" d="m390.13,10.08c7.21-2.98,15.14-6.63,19.53-9.45.78-.47,1.25-.63,2.04-.63.94,0,1.41.78,1.57,1.72.31,1.72-.63,3.29-3.29,4.7-3.92,1.88-14.26,4.86-18.49,5.8-.47.16-1.72.47-1.88,0s-.1-1.83.53-2.14Z"/>
  </g>
</svg>